<?xml version="1.0" standalone="no"?>
<!DOCTYPE svg PUBLIC "-//W3C//DTD SVG 20010904//EN"
 "http://www.w3.org/TR/2001/REC-SVG-20010904/DTD/svg10.dtd">
<svg version="1.0" xmlns="http://www.w3.org/2000/svg"
 width="400.000000pt" height="400.000000pt" viewBox="0 0 400.000000 400.000000"
 preserveAspectRatio="xMidYMid meet">
<metadata>
Created by potrace 1.11, written by Peter Selinger 2001-2013
</metadata>
<g transform="translate(0.000000,400.000000) scale(0.100000,-0.100000)"
fill="#000000" stroke="none">
<path d="M1813 3233 l-452 -3 -39 -68 c-21 -37 -103 -180 -181 -319 l-142
-251 -287 164 c-227 131 -288 162 -298 152 -13 -15 -290 -495 -299 -520 -5
-13 26 -35 148 -107 134 -80 158 -97 186 -141 21 -32 62 -71 117 -111 l84 -62
-44 -81 -45 -82 145 -84 c90 -53 154 -96 166 -115 12 -16 40 -50 64 -75 37
-40 95 -134 379 -612 l70 -118 45 0 c42 0 48 -4 91 -53 25 -29 69 -65 98 -81
100 -54 136 -56 926 -50 396 3 745 10 775 15 77 13 139 47 162 89 30 53 19
117 -40 246 -105 226 -101 283 38 549 101 195 114 235 108 340 -6 109 -31 161
-295 607 -223 376 -268 440 -341 493 -37 26 -64 61 -122 159 l-75 125 -245 -2
c-135 -1 -448 -3 -697 -4z m1207 -649 c248 -421 320 -550 314 -564 -39 -80
-311 -550 -319 -550 -5 0 -21 9 -34 19 l-24 18 29 54 c17 30 58 104 92 165
l63 110 -323 548 -323 548 -592 -7 c-326 -3 -593 -3 -592 2 0 4 24 49 53 98
l51 90 225 5 c124 3 412 7 641 8 l416 2 323 -546z m-795 -776 c391 -225 726
-420 746 -433 25 -16 72 -80 168 -230 72 -114 129 -210 126 -214 -4 -3 -122
-9 -263 -13 l-257 -6 -758 437 c-417 241 -759 441 -759 445 0 4 56 105 123
225 114 201 126 218 144 208 11 -5 340 -194 730 -419z"/>
</g>
</svg>
