<svg width="512" height="512" version="1.1" viewBox="0 0 512 512" xmlns="http://www.w3.org/2000/svg" xmlns:xlink="http://www.w3.org/1999/xlink"><defs><linearGradient id="linearGradient8023"><stop stop-color="#ffbf00" offset="0"/><stop stop-color="#ffbf00" stop-opacity=".55263" offset="1"/></linearGradient><linearGradient id="linearGradient14839" x1="1249" x2="1254" y1="3340" y2="3340" gradientUnits="userSpaceOnUse" xlink:href="#linearGradient8023"/></defs><rect x="2.1316e-14" y="-4.9738e-14" width="512" height="512" fill="#007b00" stop-color="#000000" style="-inkscape-stroke:none;font-variation-settings:normal;paint-order:stroke markers fill"/><rect y="224" width="512" height="288" fill="#008c00" stop-color="#000000" style="-inkscape-stroke:none;font-variation-settings:normal;paint-order:stroke markers fill"/><g transform="matrix(10.211 0 0 10.105 -966.35 24.186)"><g transform="matrix(.26458 0 0 .26458 -457.33 -1065.7)" style="mix-blend-mode:normal"><g transform="translate(345 133)"><path d="m1826 3919v4h3 1v30h-7-3.5v9h3.5 3v5.5 45.5h10 10v-48-3h6v-9h-10v-30h4v-4h-17z" stop-color="#000000" stroke="#000" stroke-width="6" style="font-variation-settings:normal;paint-order:stroke markers fill"/><path d="m1834.5 3922.5h-4.5v33h4.5z" fill="#808080" stop-color="#000000" style="font-variation-settings:normal;paint-order:stroke markers fill"/><path d="m1846 3965-10-0.5v48.5h10z" fill="#99a3a3" stop-color="#000000" style="font-variation-settings:normal;paint-order:stroke markers fill"/><path d="m1842 3922.5h-8v30.5h8z" fill="#4c4c4c" stop-color="#000000" style="font-variation-settings:normal;paint-order:stroke markers fill"/><path d="m1836 3967.5h-10v45.5h10z" fill="#e0e5e5" stop-color="#000000" style="font-variation-settings:normal;paint-order:stroke markers fill"/><rect x="1826" y="3961.5" width="20" height="6" fill="#666" stop-color="#000000" style="font-variation-settings:normal;paint-order:stroke markers fill"/><path d="m1819.5 3953h32.5v9h-32.5z" fill="#a00" stop-color="#000000" style="font-variation-settings:normal;paint-order:stroke markers fill"/><path d="m1826 3919h20v4h-20z" fill="#a00" stop-color="#000000" style="font-variation-settings:normal;paint-order:stroke markers fill"/><path d="m1819.5 3953h3.5v9h-3.5z" fill="#fff" fill-opacity=".28413" stop-color="#000000" style="font-variation-settings:normal;paint-order:stroke markers fill"/><path d="m1826 3919h3v4h-3z" fill="#fff" fill-opacity=".28413" stop-color="#000000" style="font-variation-settings:normal;paint-order:stroke markers fill"/></g></g><g transform="matrix(.91068 0 0 .91068 -421.6 -3152.2)" stroke-width=".29053" style="mix-blend-mode:normal"><g transform="translate(-659 161)"><g><path d="m1249 3336a4 2 0 0 0-3.959 2 4 2 0 0 0 0 0.021v0.979a4 2 0 0 0 4 2 4 2 0 0 0 4-2 4 2 0 0 0 0-0.021v-0.979a4 2 0 0 0-4-2 4 2 0 0 0-0.041 0z" fill="#fc0" stop-color="#000000" stroke="#000" stroke-width="2" style="font-variation-settings:normal;mix-blend-mode:normal"/><path d="m1249 3337a4 2 0 0 0-3.4219 1h-0.5371v1a4 2 0 0 0 4 2 4 2 0 0 0 4-2 4 2 0 0 0 0-0.021v-0.979h-0.5352a4 2 0 0 0-3.4648-1 4 2 0 0 0-0.041 0z" fill="url(#linearGradient14839)" stop-color="#000000" style="font-variation-settings:normal;mix-blend-mode:normal"/><path d="m1253 3338a4 2 0 0 1-4 2 4 2 0 0 1-4-2 4 2 0 0 1 4-2 4 2 0 0 1 4 2z" fill="#ffdc73" stop-color="#000000" style="font-variation-settings:normal;mix-blend-mode:normal"/></g></g><g transform="translate(-659 159)"><g><path d="m1249 3336a4 2 0 0 0-3.959 2 4 2 0 0 0 0 0.021v0.979a4 2 0 0 0 4 2 4 2 0 0 0 4-2 4 2 0 0 0 0-0.021v-0.979a4 2 0 0 0-4-2 4 2 0 0 0-0.041 0z" fill="#fc0" stop-color="#000000" stroke="#000" stroke-width="2" style="font-variation-settings:normal;mix-blend-mode:normal"/><path d="m1249 3337a4 2 0 0 0-3.4219 1h-0.5371v1a4 2 0 0 0 4 2 4 2 0 0 0 4-2 4 2 0 0 0 0-0.021v-0.979h-0.5352a4 2 0 0 0-3.4648-1 4 2 0 0 0-0.041 0z" fill="url(#linearGradient14839)" stop-color="#000000" style="font-variation-settings:normal;mix-blend-mode:normal"/><path d="m1253 3338a4 2 0 0 1-4 2 4 2 0 0 1-4-2 4 2 0 0 1 4-2 4 2 0 0 1 4 2z" fill="#ffdc73" stop-color="#000000" style="font-variation-settings:normal;mix-blend-mode:normal"/></g></g><g transform="translate(-659 157)"><g><path d="m1249 3336a4 2 0 0 0-3.959 2 4 2 0 0 0 0 0.021v0.979a4 2 0 0 0 4 2 4 2 0 0 0 4-2 4 2 0 0 0 0-0.021v-0.979a4 2 0 0 0-4-2 4 2 0 0 0-0.041 0z" fill="#fc0" stop-color="#000000" stroke="#000" stroke-width="2" style="font-variation-settings:normal;mix-blend-mode:normal"/><path d="m1249 3337a4 2 0 0 0-3.4219 1h-0.5371v1a4 2 0 0 0 4 2 4 2 0 0 0 4-2 4 2 0 0 0 0-0.021v-0.979h-0.5352a4 2 0 0 0-3.4648-1 4 2 0 0 0-0.041 0z" fill="url(#linearGradient14839)" stop-color="#000000" style="font-variation-settings:normal;mix-blend-mode:normal"/><path d="m1253 3338a4 2 0 0 1-4 2 4 2 0 0 1-4-2 4 2 0 0 1 4-2 4 2 0 0 1 4 2z" fill="#ffdc73" stop-color="#000000" style="font-variation-settings:normal;mix-blend-mode:normal"/></g></g><g transform="translate(-659 155)"><g><path d="m1249 3336a4 2 0 0 0-3.959 2 4 2 0 0 0 0 0.021v0.979a4 2 0 0 0 4 2 4 2 0 0 0 4-2 4 2 0 0 0 0-0.021v-0.979a4 2 0 0 0-4-2 4 2 0 0 0-0.041 0z" fill="#fc0" stop-color="#000000" stroke="#000" stroke-width="2" style="font-variation-settings:normal;mix-blend-mode:normal"/><path d="m1249 3337a4 2 0 0 0-3.4219 1h-0.5371v1a4 2 0 0 0 4 2 4 2 0 0 0 4-2 4 2 0 0 0 0-0.021v-0.979h-0.5352a4 2 0 0 0-3.4648-1 4 2 0 0 0-0.041 0z" fill="url(#linearGradient14839)" stop-color="#000000" style="font-variation-settings:normal;mix-blend-mode:normal"/><path d="m1253 3338a4 2 0 0 1-4 2 4 2 0 0 1-4-2 4 2 0 0 1 4-2 4 2 0 0 1 4 2z" fill="#ffdc73" stop-color="#000000" style="font-variation-settings:normal;mix-blend-mode:normal"/></g></g><g transform="translate(-659 153)"><g><path d="m1249 3336a4 2 0 0 0-3.959 2 4 2 0 0 0 0 0.021v0.979a4 2 0 0 0 4 2 4 2 0 0 0 4-2 4 2 0 0 0 0-0.021v-0.979a4 2 0 0 0-4-2 4 2 0 0 0-0.041 0z" fill="#fc0" stop-color="#000000" stroke="#000" stroke-width="2" style="font-variation-settings:normal;mix-blend-mode:normal"/><path d="m1249 3337a4 2 0 0 0-3.4219 1h-0.5371v1a4 2 0 0 0 4 2 4 2 0 0 0 4-2 4 2 0 0 0 0-0.021v-0.979h-0.5352a4 2 0 0 0-3.4648-1 4 2 0 0 0-0.041 0z" fill="url(#linearGradient14839)" stop-color="#000000" style="font-variation-settings:normal;mix-blend-mode:normal"/><path d="m1253 3338a4 2 0 0 1-4 2 4 2 0 0 1-4-2 4 2 0 0 1 4-2 4 2 0 0 1 4 2z" fill="#ffdc73" stop-color="#000000" style="font-variation-settings:normal;mix-blend-mode:normal"/></g></g></g><g transform="matrix(.91068 0 0 .91068 -415.78 -3150.1)" stroke-width=".29053" style="mix-blend-mode:normal"><g transform="translate(-659 161)"><g><path d="m1249 3336a4 2 0 0 0-3.959 2 4 2 0 0 0 0 0.021v0.979a4 2 0 0 0 4 2 4 2 0 0 0 4-2 4 2 0 0 0 0-0.021v-0.979a4 2 0 0 0-4-2 4 2 0 0 0-0.041 0z" fill="#fc0" stop-color="#000000" stroke="#000" stroke-width="2" style="font-variation-settings:normal;mix-blend-mode:normal"/><path d="m1249 3337a4 2 0 0 0-3.4219 1h-0.5371v1a4 2 0 0 0 4 2 4 2 0 0 0 4-2 4 2 0 0 0 0-0.021v-0.979h-0.5352a4 2 0 0 0-3.4648-1 4 2 0 0 0-0.041 0z" fill="url(#linearGradient14839)" stop-color="#000000" style="font-variation-settings:normal;mix-blend-mode:normal"/><path d="m1253 3338a4 2 0 0 1-4 2 4 2 0 0 1-4-2 4 2 0 0 1 4-2 4 2 0 0 1 4 2z" fill="#ffdc73" stop-color="#000000" style="font-variation-settings:normal;mix-blend-mode:normal"/></g></g><g transform="translate(-659 159)"><g><path d="m1249 3336a4 2 0 0 0-3.959 2 4 2 0 0 0 0 0.021v0.979a4 2 0 0 0 4 2 4 2 0 0 0 4-2 4 2 0 0 0 0-0.021v-0.979a4 2 0 0 0-4-2 4 2 0 0 0-0.041 0z" fill="#fc0" stop-color="#000000" stroke="#000" stroke-width="2" style="font-variation-settings:normal;mix-blend-mode:normal"/><path d="m1249 3337a4 2 0 0 0-3.4219 1h-0.5371v1a4 2 0 0 0 4 2 4 2 0 0 0 4-2 4 2 0 0 0 0-0.021v-0.979h-0.5352a4 2 0 0 0-3.4648-1 4 2 0 0 0-0.041 0z" fill="url(#linearGradient14839)" stop-color="#000000" style="font-variation-settings:normal;mix-blend-mode:normal"/><path d="m1253 3338a4 2 0 0 1-4 2 4 2 0 0 1-4-2 4 2 0 0 1 4-2 4 2 0 0 1 4 2z" fill="#ffdc73" stop-color="#000000" style="font-variation-settings:normal;mix-blend-mode:normal"/></g></g><g transform="translate(-659 157)"><g><path d="m1249 3336a4 2 0 0 0-3.959 2 4 2 0 0 0 0 0.021v0.979a4 2 0 0 0 4 2 4 2 0 0 0 4-2 4 2 0 0 0 0-0.021v-0.979a4 2 0 0 0-4-2 4 2 0 0 0-0.041 0z" fill="#fc0" stop-color="#000000" stroke="#000" stroke-width="2" style="font-variation-settings:normal;mix-blend-mode:normal"/><path d="m1249 3337a4 2 0 0 0-3.4219 1h-0.5371v1a4 2 0 0 0 4 2 4 2 0 0 0 4-2 4 2 0 0 0 0-0.021v-0.979h-0.5352a4 2 0 0 0-3.4648-1 4 2 0 0 0-0.041 0z" fill="url(#linearGradient14839)" stop-color="#000000" style="font-variation-settings:normal;mix-blend-mode:normal"/><path d="m1253 3338a4 2 0 0 1-4 2 4 2 0 0 1-4-2 4 2 0 0 1 4-2 4 2 0 0 1 4 2z" fill="#ffdc73" stop-color="#000000" style="font-variation-settings:normal;mix-blend-mode:normal"/></g></g></g></g><g fill="#00f300"><rect x="253.91" y="-31.556" width="4.4965" height="575.56" opacity="0" stop-color="#000000" stroke-width=".020952" style="paint-order:stroke markers fill"/><rect x=".35416" y=".41975" width="511.6" height="511.6" opacity="0" stop-color="#000000" stroke-width=".21071" style="paint-order:stroke markers fill"/></g></svg>
