<svg width="512" height="512" version="1.1" viewBox="0 0 512 512" xmlns="http://www.w3.org/2000/svg" xmlns:xlink="http://www.w3.org/1999/xlink"><defs><linearGradient id="linearGradient38560" x1="2208" x2="2232" y1="4164" y2="4164" gradientTransform="matrix(2.6057 0 0 2.6057 -5670.7 -10394)" gradientUnits="userSpaceOnUse"><stop stop-color="#6a5151" offset="0"/><stop stop-color="#483737" stop-opacity=".9956" offset="1"/></linearGradient><linearGradient id="linearGradient8023"><stop stop-color="#ffbf00" offset="0"/><stop stop-color="#ffbf00" stop-opacity=".55263" offset="1"/></linearGradient><linearGradient id="linearGradient14579" x1="1249" x2="1254" y1="3340" y2="3340" gradientUnits="userSpaceOnUse" xlink:href="#linearGradient8023"/></defs><path d="m258.11 159.44c-17.336 0.10735-34.343 4.1045-49.356 11.593l-56.761 28.307c-30.986 15.445-50.074 43.991-50.078 74.889v9.4152c-0.97498 4.8429-1.5311 9.7816-1.5319 14.794v56.613c0 30.897 19.098 59.443 50.084 74.889l56.761 28.307c30.983 15.45 69.159 15.45 100.14 0l56.766-28.307c30.978-15.449 50.058-43.996 50.058-74.889v-9.4001c0.97597-4.8474 1.5319-9.7925 1.5319-14.81v-56.613c0-30.893-19.085-59.44-50.063-74.889l-56.766-28.307c-15.432-7.699-32.964-11.701-50.786-11.593z" stop-color="#000000" stroke="#000" stroke-width="15.634" style="font-variation-settings:normal;mix-blend-mode:normal;paint-order:stroke markers fill"/><path d="m256.59 183.65c-17.336 0.10734-34.342 4.104-49.354 11.593l-56.764 28.307c-30.985 15.445-50.075 43.993-50.079 74.89v56.611c0 30.897 19.094 59.445 50.079 74.89l56.764 28.307c30.983 15.45 69.158 15.45 100.14 0l56.765-28.307c30.978-15.449 50.06-43.997 50.06-74.89v-56.611c0-30.893-19.082-59.441-50.06-74.89l-56.765-28.307c-15.432-7.6991-32.965-11.7-50.786-11.593z" fill="url(#linearGradient38560)" stop-color="#000000" style="font-variation-settings:normal;mix-blend-mode:normal;paint-order:stroke markers fill"/><path d="m258.11 159.44c-17.336 0.10735-34.342 4.104-49.354 11.593l-56.764 28.307c-30.986 15.445-50.075 43.993-50.079 74.89v56.611c0 30.897 19.094 59.445 50.079 74.89l56.764 28.307c30.983 15.45 69.158 15.45 100.14 0l56.765-28.307c30.978-15.449 50.06-43.997 50.06-74.89v-56.611c0-30.893-19.082-59.441-50.06-74.89l-56.765-28.307c-15.432-7.6991-32.965-11.7-50.786-11.593z" fill="#007200" stop-color="#000000" style="font-variation-settings:normal;mix-blend-mode:normal;paint-order:stroke markers fill"/><path d="m258.24 185.22c-14.228 0.0886-28.184 3.3648-40.504 9.5043l-46.584 23.207c-25.429 12.662-41.095 36.068-41.098 61.398v46.413c0 25.331 15.67 48.736 41.098 61.398l46.584 23.207c25.427 12.666 56.756 12.666 82.182 0l46.585-23.207c25.423-12.666 41.083-36.071 41.083-61.398v-46.413c0-25.328-15.66-48.733-41.083-61.398l-46.585-23.207c-12.665-6.312-27.053-9.5924-41.679-9.5043z" fill="#008c00" stop-color="#000000" style="font-variation-settings:normal;mix-blend-mode:normal;paint-order:stroke markers fill"/><g transform="matrix(2.6057 0 0 2.6057 -5427 -10500)" style="mix-blend-mode:normal"><g transform="translate(345 133)"><path d="m1826 3919v4h3 1v30h-7-3.5v9h3.5 3v5.5 45.5h10 10v-48-3h6v-9h-10v-30h4v-4h-17z" stop-color="#000000" stroke="#000" stroke-width="6" style="font-variation-settings:normal;paint-order:stroke markers fill"/><path d="m1834.5 3922.5h-4.5v33h4.5z" fill="#808080" stop-color="#000000" style="font-variation-settings:normal;paint-order:stroke markers fill"/><path d="m1846 3965-10-0.5v48.5h10z" fill="#99a3a3" stop-color="#000000" style="font-variation-settings:normal;paint-order:stroke markers fill"/><path d="m1842 3922.5h-8v30.5h8z" fill="#4c4c4c" stop-color="#000000" style="font-variation-settings:normal;paint-order:stroke markers fill"/><path d="m1836 3967.5h-10v45.5h10z" fill="#e0e5e5" stop-color="#000000" style="font-variation-settings:normal;paint-order:stroke markers fill"/><rect x="1826" y="3961.5" width="20" height="6" fill="#666" stop-color="#000000" style="font-variation-settings:normal;paint-order:stroke markers fill"/><path d="m1819.5 3953h32.5v9h-32.5z" fill="#a00" stop-color="#000000" style="font-variation-settings:normal;paint-order:stroke markers fill"/><path d="m1826 3919h20v4h-20z" fill="#a00" stop-color="#000000" style="font-variation-settings:normal;paint-order:stroke markers fill"/><path d="m1819.5 3953h3.5v9h-3.5z" fill="#fff" fill-opacity=".28413" stop-color="#000000" style="font-variation-settings:normal;paint-order:stroke markers fill"/><path d="m1826 3919h3v4h-3z" fill="#fff" fill-opacity=".28413" stop-color="#000000" style="font-variation-settings:normal;paint-order:stroke markers fill"/></g></g><g transform="matrix(8.9687 0 0 8.9687 -5075.1 -31049)" stroke-width=".29053" style="mix-blend-mode:normal"><g transform="translate(-659 161)"><g><path d="m1249 3336a4 2 0 0 0-3.959 2 4 2 0 0 0 0 0.021v0.979a4 2 0 0 0 4 2 4 2 0 0 0 4-2 4 2 0 0 0 0-0.021v-0.979a4 2 0 0 0-4-2 4 2 0 0 0-0.041 0z" fill="#fc0" stop-color="#000000" stroke="#000" stroke-width="2" style="font-variation-settings:normal;mix-blend-mode:normal"/><path d="m1249 3337a4 2 0 0 0-3.4219 1h-0.5371v1a4 2 0 0 0 4 2 4 2 0 0 0 4-2 4 2 0 0 0 0-0.021v-0.979h-0.5352a4 2 0 0 0-3.4648-1 4 2 0 0 0-0.041 0z" fill="url(#linearGradient14579)" stop-color="#000000" style="font-variation-settings:normal;mix-blend-mode:normal"/><path d="m1253 3338a4 2 0 0 1-4 2 4 2 0 0 1-4-2 4 2 0 0 1 4-2 4 2 0 0 1 4 2z" fill="#ffdc73" stop-color="#000000" style="font-variation-settings:normal;mix-blend-mode:normal"/></g></g><g transform="translate(-659 159)"><g><path d="m1249 3336a4 2 0 0 0-3.959 2 4 2 0 0 0 0 0.021v0.979a4 2 0 0 0 4 2 4 2 0 0 0 4-2 4 2 0 0 0 0-0.021v-0.979a4 2 0 0 0-4-2 4 2 0 0 0-0.041 0z" fill="#fc0" stop-color="#000000" stroke="#000" stroke-width="2" style="font-variation-settings:normal;mix-blend-mode:normal"/><path d="m1249 3337a4 2 0 0 0-3.4219 1h-0.5371v1a4 2 0 0 0 4 2 4 2 0 0 0 4-2 4 2 0 0 0 0-0.021v-0.979h-0.5352a4 2 0 0 0-3.4648-1 4 2 0 0 0-0.041 0z" fill="url(#linearGradient14579)" stop-color="#000000" style="font-variation-settings:normal;mix-blend-mode:normal"/><path d="m1253 3338a4 2 0 0 1-4 2 4 2 0 0 1-4-2 4 2 0 0 1 4-2 4 2 0 0 1 4 2z" fill="#ffdc73" stop-color="#000000" style="font-variation-settings:normal;mix-blend-mode:normal"/></g></g><g transform="translate(-659 157)"><g><path d="m1249 3336a4 2 0 0 0-3.959 2 4 2 0 0 0 0 0.021v0.979a4 2 0 0 0 4 2 4 2 0 0 0 4-2 4 2 0 0 0 0-0.021v-0.979a4 2 0 0 0-4-2 4 2 0 0 0-0.041 0z" fill="#fc0" stop-color="#000000" stroke="#000" stroke-width="2" style="font-variation-settings:normal;mix-blend-mode:normal"/><path d="m1249 3337a4 2 0 0 0-3.4219 1h-0.5371v1a4 2 0 0 0 4 2 4 2 0 0 0 4-2 4 2 0 0 0 0-0.021v-0.979h-0.5352a4 2 0 0 0-3.4648-1 4 2 0 0 0-0.041 0z" fill="url(#linearGradient14579)" stop-color="#000000" style="font-variation-settings:normal;mix-blend-mode:normal"/><path d="m1253 3338a4 2 0 0 1-4 2 4 2 0 0 1-4-2 4 2 0 0 1 4-2 4 2 0 0 1 4 2z" fill="#ffdc73" stop-color="#000000" style="font-variation-settings:normal;mix-blend-mode:normal"/></g></g><g transform="translate(-659 155)"><g><path d="m1249 3336a4 2 0 0 0-3.959 2 4 2 0 0 0 0 0.021v0.979a4 2 0 0 0 4 2 4 2 0 0 0 4-2 4 2 0 0 0 0-0.021v-0.979a4 2 0 0 0-4-2 4 2 0 0 0-0.041 0z" fill="#fc0" stop-color="#000000" stroke="#000" stroke-width="2" style="font-variation-settings:normal;mix-blend-mode:normal"/><path d="m1249 3337a4 2 0 0 0-3.4219 1h-0.5371v1a4 2 0 0 0 4 2 4 2 0 0 0 4-2 4 2 0 0 0 0-0.021v-0.979h-0.5352a4 2 0 0 0-3.4648-1 4 2 0 0 0-0.041 0z" fill="url(#linearGradient14579)" stop-color="#000000" style="font-variation-settings:normal;mix-blend-mode:normal"/><path d="m1253 3338a4 2 0 0 1-4 2 4 2 0 0 1-4-2 4 2 0 0 1 4-2 4 2 0 0 1 4 2z" fill="#ffdc73" stop-color="#000000" style="font-variation-settings:normal;mix-blend-mode:normal"/></g></g><g transform="translate(-659 153)"><g><path d="m1249 3336a4 2 0 0 0-3.959 2 4 2 0 0 0 0 0.021v0.979a4 2 0 0 0 4 2 4 2 0 0 0 4-2 4 2 0 0 0 0-0.021v-0.979a4 2 0 0 0-4-2 4 2 0 0 0-0.041 0z" fill="#fc0" stop-color="#000000" stroke="#000" stroke-width="2" style="font-variation-settings:normal;mix-blend-mode:normal"/><path d="m1249 3337a4 2 0 0 0-3.4219 1h-0.5371v1a4 2 0 0 0 4 2 4 2 0 0 0 4-2 4 2 0 0 0 0-0.021v-0.979h-0.5352a4 2 0 0 0-3.4648-1 4 2 0 0 0-0.041 0z" fill="url(#linearGradient14579)" stop-color="#000000" style="font-variation-settings:normal;mix-blend-mode:normal"/><path d="m1253 3338a4 2 0 0 1-4 2 4 2 0 0 1-4-2 4 2 0 0 1 4-2 4 2 0 0 1 4 2z" fill="#ffdc73" stop-color="#000000" style="font-variation-settings:normal;mix-blend-mode:normal"/></g></g></g><g transform="matrix(8.9687 0 0 8.9687 -5017.8 -31028)" stroke-width=".29053" style="mix-blend-mode:normal"><g transform="translate(-659 161)"><g><path d="m1249 3336a4 2 0 0 0-3.959 2 4 2 0 0 0 0 0.021v0.979a4 2 0 0 0 4 2 4 2 0 0 0 4-2 4 2 0 0 0 0-0.021v-0.979a4 2 0 0 0-4-2 4 2 0 0 0-0.041 0z" fill="#fc0" stop-color="#000000" stroke="#000" stroke-width="2" style="font-variation-settings:normal;mix-blend-mode:normal"/><path d="m1249 3337a4 2 0 0 0-3.4219 1h-0.5371v1a4 2 0 0 0 4 2 4 2 0 0 0 4-2 4 2 0 0 0 0-0.021v-0.979h-0.5352a4 2 0 0 0-3.4648-1 4 2 0 0 0-0.041 0z" fill="url(#linearGradient14579)" stop-color="#000000" style="font-variation-settings:normal;mix-blend-mode:normal"/><path d="m1253 3338a4 2 0 0 1-4 2 4 2 0 0 1-4-2 4 2 0 0 1 4-2 4 2 0 0 1 4 2z" fill="#ffdc73" stop-color="#000000" style="font-variation-settings:normal;mix-blend-mode:normal"/></g></g><g transform="translate(-659 159)"><g><path d="m1249 3336a4 2 0 0 0-3.959 2 4 2 0 0 0 0 0.021v0.979a4 2 0 0 0 4 2 4 2 0 0 0 4-2 4 2 0 0 0 0-0.021v-0.979a4 2 0 0 0-4-2 4 2 0 0 0-0.041 0z" fill="#fc0" stop-color="#000000" stroke="#000" stroke-width="2" style="font-variation-settings:normal;mix-blend-mode:normal"/><path d="m1249 3337a4 2 0 0 0-3.4219 1h-0.5371v1a4 2 0 0 0 4 2 4 2 0 0 0 4-2 4 2 0 0 0 0-0.021v-0.979h-0.5352a4 2 0 0 0-3.4648-1 4 2 0 0 0-0.041 0z" fill="url(#linearGradient14579)" stop-color="#000000" style="font-variation-settings:normal;mix-blend-mode:normal"/><path d="m1253 3338a4 2 0 0 1-4 2 4 2 0 0 1-4-2 4 2 0 0 1 4-2 4 2 0 0 1 4 2z" fill="#ffdc73" stop-color="#000000" style="font-variation-settings:normal;mix-blend-mode:normal"/></g></g><g transform="translate(-659 157)"><g><path d="m1249 3336a4 2 0 0 0-3.959 2 4 2 0 0 0 0 0.021v0.979a4 2 0 0 0 4 2 4 2 0 0 0 4-2 4 2 0 0 0 0-0.021v-0.979a4 2 0 0 0-4-2 4 2 0 0 0-0.041 0z" fill="#fc0" stop-color="#000000" stroke="#000" stroke-width="2" style="font-variation-settings:normal;mix-blend-mode:normal"/><path d="m1249 3337a4 2 0 0 0-3.4219 1h-0.5371v1a4 2 0 0 0 4 2 4 2 0 0 0 4-2 4 2 0 0 0 0-0.021v-0.979h-0.5352a4 2 0 0 0-3.4648-1 4 2 0 0 0-0.041 0z" fill="url(#linearGradient14579)" stop-color="#000000" style="font-variation-settings:normal;mix-blend-mode:normal"/><path d="m1253 3338a4 2 0 0 1-4 2 4 2 0 0 1-4-2 4 2 0 0 1 4-2 4 2 0 0 1 4 2z" fill="#ffdc73" stop-color="#000000" style="font-variation-settings:normal;mix-blend-mode:normal"/></g></g></g><g fill="#00f300"><rect x="256" y="-31.556" width="4.4965" height="575.56" opacity="0" stop-color="#000000" stroke-width=".020952" style="paint-order:stroke markers fill"/><rect x=".63244" y=".073215" width="511.6" height="511.6" opacity="0" stop-color="#000000" stroke-width=".21071" style="paint-order:stroke markers fill"/></g></svg>
